<?xml version="1.0" standalone="no"?>
<!DOCTYPE svg PUBLIC "-//W3C//DTD SVG 20010904//EN"
 "http://www.w3.org/TR/2001/REC-SVG-20010904/DTD/svg10.dtd">
<svg version="1.0" xmlns="http://www.w3.org/2000/svg"
 width="414.000000pt" height="414.000000pt" viewBox="0 0 414.000000 414.000000"
 preserveAspectRatio="xMidYMid meet">
<metadata>
Created by potrace 1.14, written by Peter Selinger 2001-2017
</metadata>
<g transform="translate(0.000000,414.000000) scale(0.100000,-0.100000)"
fill="#000000" stroke="none">
<path d="M1296 3104 c-225 -71 -287 -344 -114 -499 144 -129 368 -86 461 89
17 33 22 58 22 126 0 73 -4 92 -27 136 -65 125 -214 189 -342 148z"/>
<path d="M2590 3106 c-168 -45 -262 -226 -201 -386 56 -147 220 -225 369 -176
136 46 222 197 193 339 -23 109 -110 198 -220 224 -67 15 -82 15 -141 -1z"/>
<path d="M603 2959 c-87 -25 -95 -116 -23 -263 51 -104 134 -218 216 -298 53
-51 247 -188 266 -188 15 0 8 -339 -17 -899 -24 -539 -25 -556 -7 -590 27 -52
64 -75 120 -75 57 0 112 30 132 71 8 18 21 150 35 368 24 385 23 385 55 -64
21 -295 25 -312 83 -355 20 -15 43 -21 77 -20 55 1 92 21 121 67 23 37 24 -7
-15 870 -18 414 -19 487 -7 487 8 0 49 -35 91 -78 63 -64 87 -98 129 -183 68
-135 75 -142 153 -147 82 -5 102 11 156 122 22 47 58 109 80 139 40 54 137
147 153 147 13 0 12 -65 -16 -685 -14 -308 -25 -578 -25 -601 0 -83 80 -153
160 -139 46 8 97 46 111 83 6 14 21 174 34 356 14 182 25 333 26 336 1 3 11
-148 24 -336 24 -372 26 -382 89 -420 42 -25 118 -24 154 2 15 12 35 37 44 57
17 34 16 62 -7 594 -14 307 -25 632 -25 723 l1 165 92 55 c124 74 282 231 350
348 122 208 128 321 20 351 -50 14 -94 -6 -132 -61 -131 -185 -244 -292 -376
-358 -97 -48 -195 -74 -337 -89 -258 -28 -370 -110 -552 -404 l-17 -28 -48 79
c-58 97 -77 121 -147 193 -96 99 -198 141 -396 164 -297 34 -481 148 -663 409
-64 91 -100 112 -162 95z"/>
</g>
</svg>
